<svg xmlns="http://www.w3.org/2000/svg" width="1440" height="560" viewBox="0 0 1440 560" role="img" aria-labelledby="title desc">
  <title id="title">Battering ram pickup skin options</title>
  <desc id="desc">Four concepts for the dark, sparking battering ram pickup: wedge core, spiked impact orb, miniature piston, and cracked meteor.</desc>
  <defs>
    <radialGradient id="core" cx="31%" cy="24%" r="78%"><stop stop-color="#68717a"/><stop offset=".3" stop-color="#252a30"/><stop offset=".76" stop-color="#101317"/><stop offset="1" stop-color="#050709"/></radialGradient>
    <linearGradient id="iron" x2=".8" y2="1"><stop stop-color="#eef3f3"/><stop offset=".18" stop-color="#7f8b90"/><stop offset=".48" stop-color="#293137"/><stop offset=".72" stop-color="#a6a79b"/><stop offset="1" stop-color="#303238"/></linearGradient>
    <linearGradient id="gold" x2="0" y2="1"><stop stop-color="#fff1a6"/><stop offset=".34" stop-color="#ffbd46"/><stop offset="1" stop-color="#a84d12"/></linearGradient>
    <radialGradient id="ember"><stop stop-color="#fff7c4"/><stop offset=".2" stop-color="#ffdc69"/><stop offset=".6" stop-color="#ff7a20" stop-opacity=".85"/><stop offset="1" stop-color="#f34c16" stop-opacity="0"/></radialGradient>
    <filter id="glow" x="-.8" y="-.8" width="2.6" height="2.6"><feGaussianBlur stdDeviation="7" result="b"/><feMerge><feMergeNode in="b"/><feMergeNode in="SourceGraphic"/></feMerge></filter>
    <filter id="soft" x="-.5" y="-.5" width="2" height="2"><feGaussianBlur stdDeviation="14"/></filter>
  </defs>
  <rect width="1440" height="560" rx="28" fill="#07111b"/>
  <text x="720" y="51" text-anchor="middle" fill="#eaf2f7" font-family="Arial,sans-serif" font-size="24" font-weight="800" letter-spacing="4">BATTERING RAM · PICKUP SKIN OPTIONS</text>
  <text x="720" y="81" text-anchor="middle" fill="#92a4b3" font-family="Arial,sans-serif" font-size="14" letter-spacing="1.5">Same circular physics footprint · four visual directions</text>
  <g font-family="Arial,sans-serif" text-anchor="middle">
    <g transform="translate(35 108)"><rect width="330" height="400" rx="20" fill="#0c1926" stroke="#233546"/><text x="165" y="38" fill="#ffca69" font-size="14" font-weight="800" letter-spacing="2">01 · BREACHER</text><text x="165" y="373" fill="#dce6ed" font-size="18" font-weight="700">Wedge Core</text><text x="165" y="397" fill="#8ea0af" font-size="13">Armored ram nose · compact sparks</text>
      <circle cx="165" cy="208" r="96" fill="none" stroke="#537078" stroke-dasharray="4 7" opacity=".55"/><circle cx="165" cy="208" r="88" fill="#ff8b23" opacity=".13" filter="url(#soft)"/><circle cx="165" cy="208" r="72" fill="url(#core)" stroke="#656d70" stroke-width="3"/>
      <path d="M99 188 151 145 230 174 230 231 151 271 99 228Z" fill="url(#iron)" stroke="#edf0df" stroke-width="3" stroke-linejoin="round"/><path d="m112 188 46-27 57 20v44l-57 31-46-28Z" fill="#252c31" stroke="#ffbf58" stroke-width="2"/><path d="m117 193 39-22 4 75-43-24Z" fill="url(#gold)"/><path d="m159 171 51 16v36l-50 23Z" fill="#384047"/><path d="m117 191 40-20m-39 53 42 23" stroke="#fff0b0" stroke-width="3" opacity=".8"/><g fill="url(#ember)" filter="url(#glow)"><circle cx="79" cy="159" r="13"/><circle cx="253" cy="244" r="12"/><circle cx="230" cy="127" r="9"/></g><path d="m82 159-15-7m187 92 18 5m-42-121 9-15" stroke="#ffc45a" stroke-width="3" stroke-linecap="round"/>
    </g>
    <g transform="translate(385 108)"><rect width="330" height="400" rx="20" fill="#0c1926" stroke="#233546"/><text x="165" y="38" fill="#ffca69" font-size="14" font-weight="800" letter-spacing="2">02 · IMPACT</text><text x="165" y="373" fill="#dce6ed" font-size="18" font-weight="700">Flanged Mauler</text><text x="165" y="397" fill="#8ea0af" font-size="13">Spiked wrecking orb · heavy silhouette</text>
      <circle cx="165" cy="208" r="96" fill="none" stroke="#537078" stroke-dasharray="4 7" opacity=".55"/><circle cx="165" cy="208" r="88" fill="#ff8b23" opacity=".13" filter="url(#soft)"/>
      <g fill="url(#iron)" stroke="#d3d3c6" stroke-width="2" stroke-linejoin="round"><path d="m152 129 15-20 16 24-10 14Z"/><path d="m207 146 24-5-8 28-18 5Z"/><path d="m237 195 20 14-23 15-14-12Z"/><path d="m211 252 8 24-29-7-3-18Z"/><path d="m156 278-17 19-14-25 12-14Z"/><path d="m108 251-24 4 9-27 19-4Z"/><path d="m91 190-19-15 25-13 14 12Z"/><path d="m119 148-10-23 29 6 5 17Z"/></g><circle cx="165" cy="208" r="67" fill="url(#core)" stroke="#9b8056" stroke-width="3"/><circle cx="165" cy="208" r="43" fill="#111519" stroke="#d08c36" stroke-width="4"/><circle cx="165" cy="208" r="26" fill="#262b2f" stroke="#f9c35d" stroke-width="3"/><path d="M165 174v68m-34-34h68m-58-24 48 48m0-48-48 48" stroke="#6b7780" stroke-width="4"/><circle cx="165" cy="208" r="9" fill="url(#gold)"/><g fill="#ffc24f" filter="url(#glow)"><path d="m78 133 10-21 4 19 18-9-12 20Z"/><path d="m253 260 14-12-5 18 16 2-18 9Z"/><path d="m226 119 8-15 4 16 13-6-10 13Z"/></g>
    </g>
    <g transform="translate(735 108)"><rect width="330" height="400" rx="20" fill="#0c1926" stroke="#233546"/><text x="165" y="38" fill="#ffca69" font-size="14" font-weight="800" letter-spacing="2">03 · MECHANICAL</text><text x="165" y="373" fill="#dce6ed" font-size="18" font-weight="700">Shock Piston</text><text x="165" y="397" fill="#8ea0af" font-size="13">Industrial plunger · charged coil</text>
      <circle cx="165" cy="208" r="96" fill="none" stroke="#537078" stroke-dasharray="4 7" opacity=".55"/><circle cx="165" cy="208" r="88" fill="#ff8b23" opacity=".13" filter="url(#soft)"/>
      <circle cx="165" cy="208" r="71" fill="url(#core)" stroke="#555e63" stroke-width="3"/><path d="m93 186 25-21 25 10v66l-25 10-25-22Z" fill="#9a6a29" stroke="#ffd06d" stroke-width="3"/><path d="m106 187 18-12 13 5v56l-13 7-18-13Z" fill="url(#gold)"/><path d="m136 188 20-12 13 14-12 14 12 14-13 15-20-12Z" fill="none" stroke="#ffcf62" stroke-width="6"/><path d="m158 179 9 13-9 13 9 13-9 14" fill="none" stroke="#ff8b24" stroke-width="5"/><path d="m169 178 9 14-9 13 9 13-9 14" fill="none" stroke="#ffd36c" stroke-width="3"/><rect x="178" y="174" width="58" height="68" rx="12" fill="url(#iron)" stroke="#e3e5d8" stroke-width="3"/><path d="m188 184 38 0m-38 12h38m-38 12h38m-38 12h38" stroke="#485159" stroke-width="4"/><path d="m234 182 30 26-30 26Z" fill="url(#gold)" stroke="#ffe3a0" stroke-width="3"/><path d="m99 162-16-17m173 117 18 10m-5-117 13-18" stroke="#ffc34f" stroke-width="4" stroke-linecap="round" filter="url(#glow)"/><circle cx="81" cy="140" r="7" fill="#fff0af"/><circle cx="278" cy="279" r="8" fill="#ff812b"/>
    </g>
    <g transform="translate(1085 108)"><rect width="330" height="400" rx="20" fill="#0c1926" stroke="#233546"/><text x="165" y="38" fill="#ffca69" font-size="14" font-weight="800" letter-spacing="2">04 · PRIMAL</text><text x="165" y="373" fill="#dce6ed" font-size="18" font-weight="700">Cinder Meteor</text><text x="165" y="397" fill="#8ea0af" font-size="13">Cracked impact stone · hot inner seams</text>
      <circle cx="165" cy="208" r="96" fill="none" stroke="#537078" stroke-dasharray="4 7" opacity=".55"/><circle cx="165" cy="208" r="88" fill="#ff8b23" opacity=".13" filter="url(#soft)"/><path d="m113 145 36-25 40 9 33 28 16 38-11 47-36 34-50 9-39-20-21-39 5-50Z" fill="url(#core)" stroke="#62605b" stroke-width="4"/><path d="m149 121 10 34-19 21 24 18-20 26 31 4 8 42m-34-90 41-18 14 38 32-1m-52 30 42 18" fill="none" stroke="#ff7c27" stroke-width="9" stroke-linecap="round" stroke-linejoin="round" filter="url(#glow)"/><path d="m149 121 10 34-19 21 24 18-20 26 31 4 8 42m-34-90 41-18 14 38 32-1m-52 30 42 18" fill="none" stroke="#fff0a2" stroke-width="3" stroke-linecap="round" stroke-linejoin="round"/><path d="m110 179-29-14 10 26-24 8 35 11m132 62 29 13-10-26 23-9-34-9m-18-102 17-26 4 25 20-5-20 18" fill="none" stroke="#ffb743" stroke-width="4" stroke-linejoin="round" filter="url(#glow)"/><circle cx="157" cy="194" r="7" fill="#fff4ba"/><circle cx="221" cy="226" r="6" fill="#ffd16d"/>
    </g>
  </g>
  <text x="720" y="541" text-anchor="middle" fill="#63798b" font-family="Arial,sans-serif" font-size="12" letter-spacing="1">DASHED RING MARKS THE COMMON PICKUP COLLISION RADIUS</text>
</svg>

